<svg width="32" height="32" viewBox="0 0 32 32" fill="none" xmlns="http://www.w3.org/2000/svg">
  <path d="M16 2C16 2 10 2 8 6C6 10 2 14 4 20C6 26 12 30 16 30C20 30 26 26 28 20C30 14 26 10 24 6C22 2 16 2 16 2Z" fill="#FF4D6D"/>
  <path d="M16 2C16 2 10 2 8 6C6 10 2 14 4 20C6 26 12 30 16 30C20 30 26 26 28 20C30 14 26 10 24 6C22 2 16 2 16 2Z" stroke="#800F2F" stroke-width="2"/>
  <path d="M16 2L14 6H18L16 2Z" fill="#55A630"/>
  <path d="M12 3L10 7" stroke="#55A630" stroke-width="2" stroke-linecap="round"/>
  <path d="M20 3L22 7" stroke="#55A630" stroke-width="2" stroke-linecap="round"/>
  <circle cx="12" cy="12" r="1" fill="#FFF0F3"/>
  <circle cx="20" cy="12" r="1" fill="#FFF0F3"/>
  <circle cx="16" cy="18" r="1" fill="#FFF0F3"/>
  <circle cx="10" cy="22" r="1" fill="#FFF0F3"/>
  <circle cx="22" cy="22" r="1" fill="#FFF0F3"/>
</svg>
